<svg width="64" height="64" viewBox="0 0 64 64" fill="none" xmlns="http://www.w3.org/2000/svg">
<path d="M49.2923 8.30532C36.9954 8.30532 28.551 1.93555 22.6256 1.93555C16.7003 1.93555 4.25586 5.34355 4.25586 32.6022C4.25586 59.8609 20.9972 63.8609 27.5145 63.8609C58.0336 63.8609 71.0701 8.30532 49.2923 8.30532Z" fill="#919395"/>
<path d="M11.5553 11.8939C10.0851 11.8939 8.88867 10.6974 8.88867 9.22721C8.88867 7.75699 10.0851 6.56055 11.5553 6.56055C13.0256 6.56055 14.222 7.75699 14.222 9.22721C14.222 10.6974 13.0273 11.8939 11.5553 11.8939ZM11.5553 8.33832C11.0664 8.33832 10.6664 8.73655 10.6664 9.22721C10.6664 9.71788 11.0647 10.1161 11.5553 10.1161C12.046 10.1161 12.4442 9.71788 12.4442 9.22721C12.4442 8.73655 12.046 8.33832 11.5553 8.33832Z" fill="#A4AFC1"/>
<path d="M34.9518 49.0725L34.6389 48.8645C33.4851 48.0947 33.6202 46.3578 34.8807 45.7783L40.7473 43.0761C41.9918 42.5072 42.1518 40.7827 41.014 40.0005L36.3029 36.6938C35.4318 36.0894 35.2895 34.8627 36.0007 34.0627L39.558 30.0609C40.8078 28.6565 40.7438 26.5196 39.414 25.1916L38.9518 24.7294C37.5669 23.3445 37.5669 21.1009 38.9518 19.7161L40.8824 17.7854C41.4193 17.2485 41.5509 16.4289 41.2095 15.7516L39.894 13.1383C36.9447 11.9116 33.654 11.3356 30.2158 11.6343C19.4087 12.5694 11.0442 22.1943 11.5811 33.0281C12.118 43.8405 21.0567 52.4449 32.0007 52.4449C32.7402 52.4449 33.4691 52.4076 34.1838 52.3312C35.8264 52.1569 36.3242 49.9881 34.9518 49.0725Z" fill="#F3F3F1"/>
<path d="M51.9535 48.078L47.6353 43.902C47.1588 43.4415 46.4815 43.4415 46.0033 43.902L42.2664 47.518C41.4379 48.3198 41.7028 49.9162 42.7233 50.2682L48.8495 52.3855C49.2175 52.5135 49.614 52.4389 49.9322 52.1811L51.8611 50.6255C52.5988 50.0318 52.6433 48.7446 51.9535 48.078Z" fill="#2463B0"/>
<path d="M52.2271 29.4267L50.4565 26.5716C49.5765 25.1529 46.8387 25.7449 46.1169 27.5102L43.6991 33.4231C43.276 34.4578 43.8111 35.4284 44.9294 35.6489L48.7303 36.3991C50.2094 36.6907 51.9107 35.5564 52.0494 34.184L52.4351 30.3742C52.4707 30.0311 52.3978 29.704 52.2271 29.4267Z" fill="#2463B0"/>
<path d="M46.9524 13.334H48.6981C49.0181 13.334 49.3293 13.4478 49.5959 13.6611L51.7221 15.3642C52.755 16.1927 52.659 18.0522 51.5479 18.7207L49.0164 20.2407C48.2164 20.7207 47.2457 20.3313 46.8457 19.3713L45.5035 16.1482C44.9684 14.854 45.7506 13.334 46.9524 13.334Z" fill="#2463B0"/>
<path d="M15.1367 33.0273C14.6033 22.245 22.886 12.6681 33.6185 11.653C32.502 11.5641 31.3713 11.5321 30.2158 11.6317C19.4087 12.5686 11.0442 22.1935 11.5811 33.0273C12.118 43.8397 21.0567 52.4441 32.0007 52.4441C32.5838 52.4441 33.1545 52.4015 33.7233 52.3553C23.6309 51.4557 15.6433 43.2281 15.1367 33.0273Z" fill="#D5DBE1"/>
<path d="M46.2808 50.2662C45.2603 49.9142 44.9955 48.316 45.8239 47.516L48.599 44.8316L47.6372 43.9C47.1608 43.4396 46.4835 43.4396 46.0052 43.9L42.2683 47.516C41.4399 48.3178 41.7048 49.9142 42.7252 50.2662L48.8515 52.3836C49.2195 52.5116 49.6159 52.4369 49.9341 52.1791L50.4977 51.724L46.2808 50.2662Z" fill="#1D569F"/>
<path d="M48.4849 35.6486C47.3685 35.4282 46.8316 34.4575 47.2547 33.4228L49.6725 27.51C49.8325 27.1188 50.1009 26.7971 50.4173 26.5304C49.5053 25.1757 46.8298 25.766 46.1169 27.51L43.6991 33.4228C43.276 34.4575 43.8111 35.4282 44.9294 35.6486L48.7302 36.3988C49.3649 36.5251 50.0351 36.3757 50.6129 36.0682L48.4849 35.6486Z" fill="#1D569F"/>
<path d="M50.4033 19.3695L49.0611 16.1464C48.6753 15.222 48.974 14.1891 49.6104 13.6718L49.5962 13.6593C49.3313 13.4478 49.0184 13.334 48.7002 13.334H46.9544C45.7508 13.334 44.9686 14.854 45.5073 16.1464L46.8495 19.3695C47.2495 20.3295 48.2202 20.7189 49.0202 20.2389L50.4229 19.3962C50.4157 19.3873 50.4068 19.3802 50.4033 19.3695Z" fill="#1D569F"/>
<path d="M16.8887 16.8887H30.222V19.5553H16.8887V16.8887Z" fill="black"/>
<path d="M12.8887 23.1113H24.8887V25.778H12.8887V23.1113Z" fill="black"/>
<path d="M28.4453 23.1113H38.8453V25.778H28.4453V23.1113Z" fill="black"/>
<path d="M11.5547 28.4453H33.7769V31.112H11.5547V28.4453Z" fill="black"/>
<path d="M26.666 34.666H35.9994V37.3327H26.666V34.666Z" fill="black"/>
<path d="M16.8887 43.5547H27.1109V46.2213H16.8887V43.5547Z" fill="black"/>
<path d="M31.842 53.3333C20.5406 53.3333 11.25 44.4338 10.6935 33.0702C10.1353 21.7404 18.7931 11.7244 29.9931 10.7467C33.4384 10.4444 36.8126 10.9724 40.018 12.3164C40.3131 12.4409 40.5531 12.6649 40.6953 12.9511L41.9717 15.5075C42.5602 16.6844 42.3326 18.1013 41.4082 19.0329L39.5362 20.9209C38.7077 21.7547 38.7077 23.1129 39.5362 23.9467L39.9842 24.4C41.7655 26.1938 41.8491 29.0862 40.1762 30.9849L36.7255 34.8996C36.6153 35.024 36.6135 35.1591 36.6206 35.2267C36.6295 35.3049 36.6651 35.4169 36.7824 35.4987L41.3602 38.7378C42.2651 39.3653 42.754 40.4071 42.6562 41.5218C42.5584 42.6364 41.8989 43.5804 40.8891 44.0444L35.1984 46.6862C35.0153 46.7715 34.9762 46.9315 34.9708 47.0204C34.9655 47.1093 34.9762 47.2764 35.1469 47.3902L35.4509 47.5947C36.5389 48.3271 37.0366 49.6302 36.7184 50.9138C36.4055 52.1742 35.3797 53.0773 34.1015 53.2142C33.3602 53.2942 32.5993 53.3333 31.842 53.3333ZM31.8615 13.3333C31.3193 13.3333 30.7735 13.3564 30.226 13.4044C20.4357 14.2595 12.8677 23.024 13.3549 32.9404C13.8437 42.88 21.9628 50.6667 31.842 50.6667C32.5122 50.6667 33.1717 50.6311 33.8206 50.5635C33.9824 50.5458 34.0873 50.4498 34.13 50.2738C34.1531 50.1831 34.1815 49.9556 33.9611 49.808L33.6589 49.6035C32.7291 48.9778 32.2242 47.936 32.3131 46.8124C32.402 45.6924 33.0597 44.7395 34.0766 44.2684L39.7709 41.6249C39.954 41.5413 39.9931 41.3795 40.0002 41.2907C40.0073 41.2018 39.9966 41.0347 39.8313 40.9209L35.2482 37.6782C34.5442 37.1858 34.0766 36.4053 33.9735 35.5413C33.8686 34.672 34.1424 33.7938 34.7255 33.1342L38.1762 29.2196C38.9246 28.3716 38.8873 27.0791 38.0909 26.2773L37.6429 25.824C35.7886 23.9556 35.7886 20.912 37.6429 19.0418L39.5149 17.152C39.634 17.0329 39.6624 16.8498 39.586 16.6969L38.5353 14.592C36.3806 13.7547 34.1442 13.3333 31.8615 13.3333Z" fill="black"/>
<path d="M49.0324 53.3329C48.7781 53.3329 48.5239 53.292 48.2786 53.2084L42.6644 51.3044C41.8057 51.0129 41.1693 50.2715 40.9613 49.3204C40.7408 48.316 41.0448 47.2724 41.7542 46.5986L45.1799 43.3453C46.1293 42.4404 47.5621 42.444 48.5133 43.3453L52.4724 47.1035C53.0573 47.66 53.3719 48.4671 53.3328 49.3169C53.2955 50.1542 52.9186 50.9169 52.2964 51.4075L50.5275 52.8066C50.0901 53.1515 49.5621 53.3329 49.0324 53.3329ZM49.1319 50.6822C49.1337 50.6822 49.1337 50.6822 49.1319 50.6822V50.6822ZM46.8457 45.4395L43.5906 48.5311C43.5444 48.5755 43.5462 48.7604 43.5924 48.8226L48.979 50.6289L50.6395 49.3151C50.6768 49.2653 50.6768 49.0857 50.6324 49.0342L46.8457 45.4395Z" fill="black"/>
<path d="M49.0986 37.3331C48.8622 37.3331 48.6257 37.31 48.3946 37.2638L44.9742 36.5758C44.0906 36.398 43.3866 35.8949 42.9902 35.1607C42.5937 34.4264 42.56 33.5642 42.8942 32.7322L45.0702 27.3118C45.5982 25.9927 46.9582 25.0238 48.4497 24.9011C49.6906 24.8015 50.7751 25.3047 51.3511 26.2558L52.944 28.8709C53.248 29.374 53.3795 29.9589 53.3191 30.5651L52.9706 34.0584C52.8782 34.9953 52.3377 35.8931 51.488 36.5206C50.7697 37.0522 49.9271 37.3331 49.0986 37.3331ZM48.7573 27.5553C48.7288 27.5553 48.6986 27.5553 48.6666 27.5589C48.2524 27.5944 47.7173 27.8664 47.5431 28.3055L45.3671 33.726C45.3404 33.902 45.3884 33.9393 45.5004 33.9624L48.9208 34.6504C49.2124 34.7109 49.5982 34.6024 49.904 34.3767C50.1386 34.2042 50.3004 33.9749 50.3182 33.7953L50.6648 30.3038L51.8044 29.5642L50.6648 30.2575L49.072 27.6407C49.0435 27.5944 48.9226 27.5553 48.7573 27.5553Z" fill="black"/>
<path d="M48.372 21.336C48.1071 21.336 47.8404 21.2933 47.5773 21.208C46.8217 20.9591 46.1995 20.3635 45.8706 19.5742L44.6955 16.7529C44.2759 15.7466 44.3862 14.568 44.98 13.6755C45.5026 12.8933 46.308 12.4453 47.1933 12.4453H48.7204C49.3088 12.4453 49.8688 12.6462 50.34 13.0249L52.1995 14.5146C52.9746 15.1351 53.3924 16.1378 53.3213 17.1973C53.252 18.232 52.7204 19.1422 51.8991 19.6347L49.6857 20.9662C49.2768 21.2115 48.8271 21.336 48.372 21.336ZM47.2324 15.112C47.1577 15.1849 47.044 15.4533 47.1577 15.7271L48.3328 18.5484L50.5284 17.3466C50.5853 17.3129 50.6511 17.1849 50.6635 17.016C50.676 16.8382 50.6226 16.664 50.5355 16.5946L48.6742 15.1049L47.2324 15.112Z" fill="black"/>
</svg>
