<svg width="64" height="64" viewBox="0 0 64 64" fill="none" xmlns="http://www.w3.org/2000/svg">
<path d="M62.4011 26.3386C56.618 37.1902 58.2695 47.6382 55.4837 52.8684C52.6979 58.0986 43.8375 67.4782 19.7806 54.6604C-4.27627 41.8426 0.0650612 25.1866 3.13173 19.4337C17.4819 -7.49959 72.6428 7.11908 62.4011 26.3386Z" fill="#919395"/>
<path d="M46.9375 6.92773L48.1946 5.67065L50.7087 8.18481L49.4517 9.44189L46.9375 6.92773Z" fill="#A4AFC1"/>
<path d="M54.1699 14.1641L55.427 12.907L57.9412 15.4211L56.6841 16.6782L54.1699 14.1641Z" fill="#A4AFC1"/>
<path d="M54.166 7.87109L56.6802 5.35694L57.9372 6.61402L55.4231 9.12817L54.166 7.87109Z" fill="#A4AFC1"/>
<path d="M51.396 30.186C52.7845 28.7975 52.7845 26.5462 51.396 25.1577C50.0075 23.7692 47.7562 23.7692 46.3677 25.1577C44.9791 26.5462 44.9791 28.7975 46.3677 30.186C47.7562 31.5746 50.0075 31.5746 51.396 30.186Z" fill="#2463B0"/>
<path d="M33.1742 52.1857L30.0311 49.0426C29.336 48.3475 29.336 47.2222 30.0311 46.5289L32.7618 43.7982C33.4284 43.1315 33.8035 42.2266 33.8035 41.2844V39.2009C33.8035 38.2586 34.1787 37.3538 34.8453 36.6871L38.8329 32.6995C40.2213 31.3111 42.472 31.3111 43.8604 32.6995L44.9182 33.7573C45.4569 34.296 45.8071 34.9929 45.9209 35.7449L46.7369 41.192C46.9022 41.7698 46.7404 42.3902 46.3155 42.8151L46.3049 42.8258C45.4551 43.6755 44.0098 43.3626 43.5884 42.2373L41.9742 35.8426L39.8729 37.944C39.2062 38.6106 38.8311 39.5155 38.8311 40.4578V42.5413C38.8311 43.4835 38.456 44.3884 37.7893 45.0551L34.4311 48.4133L35.688 49.672C36.0347 50.0186 36.0347 50.5822 35.688 50.9289L34.4311 52.1857C34.0844 52.5324 33.5209 52.5324 33.1742 52.1857Z" fill="#F3F3F1"/>
<path d="M31.2906 35.2138L33.8044 37.7276L40.0906 31.4414L37.5769 28.9276C36.8818 28.2325 35.7564 28.2325 35.0631 28.9276L31.2924 32.6983C30.5955 33.3934 30.5955 34.5187 31.2906 35.2138Z" fill="#F3F3F1"/>
<path d="M31.1113 16.8895C33.0758 16.8895 34.6669 15.2984 34.6669 13.334C34.6669 15.2984 36.258 16.8895 38.2224 16.8895C36.258 16.8895 34.6669 18.4807 34.6669 20.4451C34.6669 18.4807 33.0758 16.8895 31.1113 16.8895Z" fill="#2FDF84"/>
<path d="M49.9309 30.185C48.5424 28.7966 48.5424 26.5459 49.9309 25.1575C50.1549 24.9335 50.4055 24.7593 50.6669 24.6081C49.3069 23.8188 47.5398 23.993 46.3753 25.1575C44.9869 26.5459 44.9869 28.7966 46.3753 30.185C47.5398 31.3495 49.3069 31.5237 50.6669 30.7344C50.4055 30.5833 50.1549 30.409 49.9309 30.185Z" fill="#1D569F"/>
<path d="M33.2939 48.052C32.7323 47.4498 32.7323 46.475 33.2939 45.8744L35.5002 43.5089C36.0388 42.9314 36.3419 42.1475 36.3419 41.3313V39.5263C36.3419 38.7101 36.645 37.9262 37.1836 37.3487L40.4053 33.8944C40.5863 33.7004 40.7889 33.5494 41 33.4185C39.9012 32.7348 38.4734 32.8857 37.5326 33.8944L34.3109 37.3487C33.7722 37.9262 33.4692 38.7101 33.4692 39.5263V41.3313C33.4692 42.1475 33.1661 42.9314 32.6275 43.5089L30.4212 45.8744C29.8596 46.4765 29.8596 47.4514 30.4212 48.052L32.9607 50.7748C33.2408 51.0751 33.6961 51.0751 33.9762 50.7748L34.9041 49.7799L33.2939 48.052Z" fill="#D5DBE1"/>
<path d="M46.5262 39.7885L45.5306 35.8418L43.4293 37.9431C43.1431 38.2294 42.9226 38.5654 42.752 38.9227L43.5875 42.2382C44.0106 43.3636 45.4542 43.6765 46.3039 42.8267L46.3146 42.816C46.7395 42.3911 46.8995 41.7707 46.7359 41.1929L46.5262 39.7885Z" fill="#D5DBE1"/>
<path d="M34.8464 35.214C34.1513 34.5189 34.1513 33.3935 34.8464 32.7002L38.0962 29.4504L37.5753 28.9295C36.8802 28.2344 35.7549 28.2344 35.0615 28.9295L31.2909 32.7002C30.5958 33.3953 30.5958 34.5207 31.2909 35.214L33.8046 37.7278L35.5824 35.95L34.8464 35.214Z" fill="#D5DBE1"/>
<path d="M48.8898 32.1158C47.7022 32.1158 46.5858 31.6535 45.7466 30.8144C44.9075 29.9753 44.4453 28.8589 44.4453 27.6713C44.4453 26.4838 44.9075 25.3673 45.7466 24.5282C47.4231 22.85 50.3546 22.85 52.0311 24.5282C52.872 25.3673 53.3342 26.4838 53.3342 27.6713C53.3342 28.8589 52.872 29.9735 52.0329 30.8144C51.192 31.6535 50.0773 32.1158 48.8898 32.1158ZM48.8898 25.8935C48.4151 25.8935 47.9689 26.0784 47.6329 26.4144C47.2969 26.7504 47.112 27.1966 47.112 27.6713C47.112 28.146 47.2969 28.5922 47.6329 28.9282C48.3049 29.6002 49.4746 29.6002 50.1466 28.9282C50.4826 28.5922 50.6675 28.146 50.6675 27.6713C50.6675 27.1966 50.4826 26.7504 50.1466 26.4144C49.8106 26.0784 49.3644 25.8935 48.8898 25.8935Z" fill="black"/>
<path d="M34.0281 53.3327C33.445 53.3327 32.8974 53.1051 32.4868 52.6909C32.4868 52.6909 32.4868 52.6909 32.485 52.6891L29.5037 49.6811C28.3321 48.5007 28.3321 46.5789 29.5037 45.3967L32.0921 42.7851C32.4797 42.394 32.693 41.8713 32.693 41.3167V39.322C32.693 38.058 33.1801 36.8705 34.0672 35.9762L37.8486 32.1611C39.6263 30.3656 42.7339 30.3656 44.5117 32.1611L45.5143 33.1727C46.229 33.8927 46.6859 34.8065 46.837 35.8162L47.6103 41.034C47.8628 41.8785 47.5819 42.9718 46.8406 43.7202C46.1294 44.4367 45.1339 44.7282 44.165 44.5256C43.1926 44.3158 42.4032 43.6313 42.0548 42.6945L41.0574 38.7265L40.7286 39.0589C40.3463 39.4447 40.1277 39.9798 40.1277 40.5273V42.522C40.1277 43.786 39.6406 44.9736 38.7534 45.8678L36.4974 48.1433L36.7606 48.4082C37.6014 49.258 37.6014 50.6393 36.7588 51.4891L35.5677 52.6909C35.1588 53.1033 34.6112 53.3327 34.0281 53.3327ZM41.1819 33.4358C40.6397 33.4358 40.1294 33.6491 39.7437 34.0367L35.9623 37.8518C35.5801 38.2376 35.3614 38.7727 35.3614 39.3202V41.3149C35.3614 42.5771 34.8743 43.7647 33.9872 44.6607L31.397 47.274C31.2548 47.418 31.2548 47.6598 31.397 47.802L34.0281 50.458L34.5366 49.9442L33.6779 49.0785C33.1623 48.5593 33.1623 47.722 33.6779 47.2011L36.8637 43.9851C37.2512 43.594 37.4646 43.0731 37.4646 42.5167V40.522C37.4646 39.2598 37.9517 38.0722 38.8388 37.178L40.8317 35.1673C41.1694 34.826 41.6654 34.6909 42.1312 34.8207C42.5952 34.9487 42.9543 35.3149 43.0717 35.7825L44.6023 41.9033C44.5899 41.8447 44.6503 41.8998 44.7303 41.9158C44.8068 41.9318 44.8797 41.9105 44.9383 41.8518C45.013 41.7771 45.0379 41.6811 45.013 41.5922L44.2023 36.2073C44.1348 35.7647 43.9357 35.3629 43.6228 35.0482L42.6201 34.0367C42.2343 33.6491 41.7241 33.4358 41.1819 33.4358Z" fill="black"/>
<path d="M34.2489 39.5044C33.9075 39.5044 33.5662 39.3746 33.3066 39.1133L30.7929 36.5995C30.2044 36.0111 29.8809 35.2306 29.8809 34.4004C29.8809 33.5684 30.2044 32.788 30.7929 32.1995L34.5635 28.4289C35.7777 27.2164 37.7493 27.2164 38.9635 28.4289L41.4773 30.9444C41.9982 31.4653 41.9982 32.3098 41.4773 32.8306C40.9564 33.3515 40.112 33.3515 39.5911 32.8306L37.0773 30.3151C36.9031 30.1409 36.6222 30.1426 36.448 30.3151L32.6773 34.0875C32.5635 34.2013 32.5475 34.3329 32.5475 34.4022C32.5475 34.4715 32.5653 34.6031 32.6773 34.7169L35.1911 37.2306C35.712 37.7515 35.712 38.596 35.1911 39.1169C34.9297 39.3729 34.5902 39.5044 34.2489 39.5044Z" fill="black"/>
<path d="M27.5432 37.3298C25.072 37.3298 22.6969 36.2596 20.9583 34.2383C18.3485 31.2071 18.0658 27.0809 20.2383 23.7227C21.3352 22.0267 21.5325 19.9787 20.7787 18.1049C20.0249 16.2311 18.464 14.8907 16.4978 14.4285L10.3965 12.992L11.008 10.3965L17.1094 11.8329C19.9307 12.496 22.1707 14.4196 23.2534 17.1094C24.336 19.7991 24.0552 22.7378 22.48 25.1716C20.64 28.0143 21.6 30.896 22.9814 32.4996C24.3609 34.1031 27.0703 35.4738 30.1529 34.0836L31.7796 33.3476L32.88 35.7778L31.2534 36.5138C30.0374 37.0614 28.7787 37.3298 27.5432 37.3298Z" fill="black"/>
<path d="M33.334 12.4453H36.0006V21.3342H33.334V12.4453Z" fill="black"/>
<path d="M30.2227 15.5547H39.1115V18.2214H30.2227V15.5547Z" fill="black"/>
</svg>
